<svg preserveAspectRatio="xMidYMid meet" width="18" height="18" overflow="visible" style="display: block;" viewBox="0 0 18 18.1263" fill="none" xmlns="http://www.w3.org/2000/svg">
<g id="Group 210">
<path id="Vector" d="M17.3342 15.7604C17.0538 15.6367 16.7487 15.6449 16.4602 15.7439C16.0396 15.8923 15.5779 15.8923 15.1491 15.6944L13.195 14.8286V11.8768C13.195 11.514 13.1208 11.1677 12.9806 10.8379C12.8404 10.5081 12.626 10.2195 12.3787 9.97212L10.3338 8.04272L11.1996 6.86363L15.1986 9.54337C15.446 9.70827 15.7428 9.76599 16.0396 9.70827C16.3282 9.65056 16.5838 9.4774 16.7487 9.23829C16.9137 8.99917 16.9796 8.6941 16.9219 8.40551C16.8642 8.10868 16.6993 7.86132 16.4602 7.69641L10.4328 3.66444C9.77313 3.23568 9.00631 3.0213 8.223 3.0213H7.34074C7.09338 3.0213 6.85426 2.97183 6.62339 2.88113C6.39252 2.79043 6.19463 2.65026 6.02147 2.46887L4.65274 1.10014C4.54555 0.992951 4.42187 0.910498 4.28169 0.85278C4.14152 0.795063 3.9931 0.770327 3.85293 0.770327C3.71276 0.770327 3.5561 0.803308 3.42417 0.85278C3.284 0.910498 3.16032 0.992951 3.05313 1.10014C2.83875 1.31452 2.72331 1.59486 2.72331 1.89169C2.72331 2.18852 2.83875 2.46887 3.05313 2.68325L4.42187 4.05197C4.8094 4.4395 5.25465 4.73633 5.74938 4.95071C6.2441 5.15685 6.7883 5.26404 7.32425 5.26404H7.88494L6.99443 6.42663C6.63988 6.88012 6.45848 7.44905 6.45848 8.02622V9.4939C6.45848 9.5681 6.43374 9.64231 6.39252 9.70827C6.35129 9.77424 6.29357 9.81546 6.21936 9.84844L3.96837 10.7472L3.11085 10.3597C2.68208 10.1618 2.36876 9.82371 2.19561 9.41969C2.08017 9.1311 1.87403 8.90023 1.60194 8.77655C0.711433 8.37253 -0.26977 9.23829 0.0682912 10.1453C0.431089 11.1265 1.17318 11.9593 2.19561 12.4127L5.10623 13.7073L11.1913 16.4282L14.2257 17.7805C15.2563 18.234 16.3695 18.2257 17.3259 17.8464C18.2329 17.4836 18.2164 16.1809 17.3259 15.7851L17.3424 15.7439L17.3342 15.7604ZM7.05215 11.9098C7.51389 11.7201 7.92616 11.4151 8.223 10.9945C8.51983 10.5823 8.67649 10.0958 8.70123 9.60108L10.8368 11.6129C10.8368 11.6129 10.9028 11.6872 10.9275 11.7366C10.944 11.7861 10.9605 11.8356 10.9605 11.885V13.8392L6.84601 12.0005L7.07688 11.9098H7.06039H7.05215Z" fill="var(--fill-0, #4E93AD)"/>
<path id="Vector_2" d="M12.8249 3.74675C13.196 3.74675 13.5588 3.63956 13.8638 3.42518C14.1772 3.21905 14.408 2.93046 14.5482 2.58416C14.6884 2.23785 14.7296 1.86681 14.6554 1.50402C14.5812 1.14122 14.3998 0.811408 14.1442 0.547557C13.8886 0.283706 13.5505 0.110554 13.1877 0.0363463C12.8249 -0.0378618 12.4456 0.00336494 12.1076 0.143536C11.7695 0.283706 11.4727 0.531067 11.2665 0.827899C11.0604 1.14122 10.945 1.49577 10.945 1.86681C10.945 2.36153 11.1429 2.83976 11.4892 3.18607C11.8437 3.54061 12.3137 3.73026 12.8084 3.73026L12.8249 3.74675Z" fill="var(--fill-0, #4E93AD)"/>
</g>
</svg>
